<?xml version="1.0" encoding="utf-8"?>
<!-- Generator: Adobe Illustrator 19.2.1, SVG Export Plug-In . SVG Version: 6.00 Build 0)  -->
<svg version="1.1" id="Layer_1" xmlns="http://www.w3.org/2000/svg" xmlns:xlink="http://www.w3.org/1999/xlink" x="0px" y="0px"
	 viewBox="0 0 248 174.6" style="enable-background:new 0 0 248 174.6;" xml:space="preserve">
<style type="text/css">
	.st0{fill:#FFB819;}
	.st1{fill:#FFFFFF;}
</style>
<g>
	<path class="st0" d="M163.3,21.7c-20.4,0.4-45,18.3-71.1,18.3c-11.2,0-21.6-3.6-20.9-7.2c0.8-3.6,11.1-4.9,20.2-4.2
		c10.9,0.8,15.2,3.2,20.9,3.5c4.8,0.3,5.5-2.1,2.5-2.4c-6-0.6-17.2-5-29.5-5.1c-12.5-0.1-20.1,3.1-20.8,8.7
		c-0.6,4.6,7.9,11.2,26.6,11.4c24.5,0.3,51.7-18.4,72.1-18.6c10.2-0.1,20.4,1.9,19.5,6.8c-0.8,5-9,6.2-18.3,6.4
		c-10.8,0.1-17.6-4.4-24-4.3c-5.4,0.1-4.2,2.2-3,2.2c7.6,0.1,18.3,6.4,30.8,6.2c13.2-0.1,19.7-4.7,20.1-10.8
		C188.8,26.8,181.2,21.4,163.3,21.7L163.3,21.7z"/>
	<path class="st1" d="M237.3,118.6c-6.7-11-28.3-17.1-60.4-4.8c-0.7-5.8-3.1-21.6-3.6-25.3c-0.6-4-2.6-11.4-4.9-14
		c-2.2-2.6-5.5-5.3-11.5-6c-9.3-1.2-27,6-33.7,8.2c-15,5-16.9,2.1-11.5-2.6c2.9-2.5,1.9-5.8-7.1-1c-3.9,2.1-6,6.4-5.3,8.7
		c1.2,4.1,5.4,5,13.3,3.5c8.9-1.7,16.3-5.1,25.5-8.6c6.4-2.5,10.3-3.6,14.3-4.2c3.7-0.6,10.1,0.1,12.5,6.1c2.9,7.6,2.6,14.7,3,27.6
		c0.2,5.2,0.1,8.9,0.3,11.1c-1.5,0.7-3,1.4-4.6,2.2c-19.3,9.3-50.9,33.7-81.6,35.3c-27.3,1.5-64.3-9.4-66.1-25.6
		c-1.7-15.1,20.8-20.4,35.5-20.4c11.2,0,21.9,2.7,28.7,3.5c-1.5,12.2-5.3,22.5-18.4,25.6c-8.2,1.9-1.9,5.1,4.8,3.9
		c21.8-4,18.4-30.9,21.9-56.5c0.6-4,4.6-13,15.4-17.2c6.3-2.5,11.9-4.4,21.4-4.8l0,0.5c0.3,3.5,0.4,5.4,1.7,6c1.9,0.7,3.6-0.3,4-2.1
		c0.2-1,0.2-3,0.1-4.4c1.3,0,2.6,0.1,4,0.1c8.3,0.4,14.8,3.9,17.6,2.6c2.9-1.4-3.3-3-3.3-3s-6.3-2.5-18.5-2.6
		c-0.3-4.2-1.1-18-1.5-20.2c-0.3-2.5-5.3,0.3-5.1,3c0,0.9,0.4,10.7,0.8,17.3c-3.4,0.2-7.1,0.5-11.2,1.1C90.7,65,83.9,77.8,82.8,83.7
		c-1.4,8.2-1.5,17.2-2.3,25.6c-6.4-0.9-15.8-3.9-29-3.9c-18,0-46,5-44.2,24C9.3,152,53.5,163,84,160.2c43.1-3.9,75.2-32.7,96.7-42
		c10.9-4.7,38.7-11.9,48.6,1.2c10.4,13.7-8.2,32.4-44.9,32.4c-13.2,0-23.4-0.4-33.5-1.9c-10.1-1.8-13.9-1.7-14.1,0
		c-0.4,1.8,17,7.6,43.5,7.6C242.5,157.6,242.9,128.1,237.3,118.6L237.3,118.6z"/>
</g>
</svg>
